<svg width="43" height="43" viewBox="0 0 43 43" fill="none" xmlns="http://www.w3.org/2000/svg">
<g clip-path="url(#clip0)">
<path fill-rule="evenodd" clip-rule="evenodd" d="M2.6875 21.5C2.6875 26.4894 4.66953 31.2744 8.19755 34.8024C11.7256 38.3305 16.5106 40.3125 21.5 40.3125C26.4894 40.3125 31.2744 38.3305 34.8024 34.8024C38.3305 31.2744 40.3125 26.4894 40.3125 21.5C40.3125 16.5106 38.3305 11.7256 34.8024 8.19755C31.2744 4.66953 26.4894 2.6875 21.5 2.6875C16.5106 2.6875 11.7256 4.66953 8.19755 8.19755C4.66953 11.7256 2.6875 16.5106 2.6875 21.5ZM43 21.5C43 27.2022 40.7348 32.6708 36.7028 36.7028C32.6708 40.7348 27.2022 43 21.5 43C15.7978 43 10.3292 40.7348 6.2972 36.7028C2.26517 32.6708 0 27.2022 0 21.5C0 15.7978 2.26517 10.3292 6.2972 6.2972C10.3292 2.26517 15.7978 0 21.5 0C27.2022 0 32.6708 2.26517 36.7028 6.2972C40.7348 10.3292 43 15.7978 43 21.5ZM22.8438 30.9062C22.8438 31.2626 22.7022 31.6044 22.4502 31.8564C22.1982 32.1084 21.8564 32.25 21.5 32.25C21.1436 32.25 20.8018 32.1084 20.5498 31.8564C20.2978 31.6044 20.1562 31.2626 20.1562 30.9062V15.3376L14.3889 21.1076C14.1366 21.3599 13.7943 21.5017 13.4375 21.5017C13.0807 21.5017 12.7384 21.3599 12.4861 21.1076C12.2338 20.8553 12.0921 20.5131 12.0921 20.1562C12.0921 19.7994 12.2338 19.4572 12.4861 19.2049L20.5486 11.1424C20.6734 11.0172 20.8217 10.918 20.985 10.8502C21.1482 10.7825 21.3232 10.7476 21.5 10.7476C21.6768 10.7476 21.8518 10.7825 22.015 10.8502C22.1783 10.918 22.3266 11.0172 22.4514 11.1424L30.5139 19.2049C30.7662 19.4572 30.9079 19.7994 30.9079 20.1562C30.9079 20.5131 30.7662 20.8553 30.5139 21.1076C30.2616 21.3599 29.9193 21.5017 29.5625 21.5017C29.2057 21.5017 28.8634 21.3599 28.6111 21.1076L22.8438 15.3376V30.9062Z" fill="#BBB9B9" stroke="#BBB9B9" stroke-width="0.5"/>
</g>
<defs>
<clipPath id="clip0">
<rect width="43" height="43" fill="white"/>
</clipPath>
</defs>
</svg>
