<svg width="34" height="34" viewBox="0 0 34 34" fill="none" xmlns="http://www.w3.org/2000/svg">
<path d="M32.3008 5.09961V8.49961C32.3008 8.95048 32.1217 9.38288 31.8029 9.70169C31.4841 10.0205 31.0516 10.1996 30.6008 10.1996L1.71438 10.1996V3.39961L30.6008 3.39961C31.0516 3.39961 31.4841 3.57872 31.8029 3.89753C32.1217 4.21634 32.3008 4.64874 32.3008 5.09961ZM22.1008 15.2996V18.6996C22.1008 19.1505 21.9217 19.5829 21.6029 19.9017C21.2841 20.2205 20.8517 20.3996 20.4008 20.3996L1.71438 20.3996V13.5996L20.4008 13.5996C20.8517 13.5996 21.2841 13.7787 21.6029 14.0975C21.9217 14.4163 22.1008 14.8487 22.1008 15.2996ZM11.9008 25.4996V28.8996C11.9008 29.3505 11.7217 29.7829 11.4029 30.1017C11.0841 30.4205 10.6517 30.5996 10.2008 30.5996H1.71438V23.7996L10.2008 23.7996C10.6517 23.7996 11.0841 23.9787 11.4029 24.2975C11.7217 24.6163 11.9008 25.0487 11.9008 25.4996Z" fill="#FFFAF0"/>
</svg>
