<svg width="34" height="34" viewBox="0 0 34 34" fill="none" xmlns="http://www.w3.org/2000/svg">
<path fill-rule="evenodd" clip-rule="evenodd" d="M3.1875 3.59375C3.1875 3.17106 3.01959 2.76568 2.7207 2.4668C2.42182 2.16791 2.01644 2 1.59375 2C1.17106 2 0.765685 2.16791 0.466799 2.4668C0.167912 2.76568 0 3.17106 0 3.59375L0 30.1562C0 31.036 0.714 31.75 1.59375 31.75H32.4062C32.8289 31.75 33.2343 31.5821 33.5332 31.2832C33.8321 30.9843 34 30.5789 34 30.1562C34 29.7336 33.8321 29.3282 33.5332 29.0293C33.2343 28.7304 32.8289 28.5625 32.4062 28.5625H3.1875V3.59375ZM33.5325 8.97C33.814 8.66788 33.9673 8.26828 33.96 7.85539C33.9527 7.4425 33.7854 7.04856 33.4934 6.75655C33.2014 6.46455 32.8075 6.29729 32.3946 6.29C31.9817 6.28272 31.5821 6.43598 31.28 6.7175L21.25 16.7475L16.0013 11.4987C15.7024 11.2003 15.2973 11.0327 14.875 11.0327C14.4527 11.0327 14.0476 11.2003 13.7487 11.4987L6.8425 18.405C6.56098 18.7071 6.40772 19.1067 6.415 19.5196C6.42229 19.9325 6.58955 20.3264 6.88155 20.6184C7.17356 20.9104 7.5675 21.0777 7.98039 21.085C8.39328 21.0923 8.79288 20.939 9.095 20.6575L14.875 14.8775L20.1238 20.1262C20.4226 20.4247 20.8277 20.5923 21.25 20.5923C21.6723 20.5923 22.0774 20.4247 22.3762 20.1262L33.5325 8.97Z" fill="#FFFAF0"/>
</svg>
