<svg width="45" height="45" viewBox="0 0 45 45" fill="none" xmlns="http://www.w3.org/2000/svg">
<path d="M39.375 45H22.5C21.8848 45 21.1304 44.4947 20.2368 43.4842C19.3433 42.4736 18.5596 41.2873 17.8857 39.9253C17.2119 38.5633 16.875 37.4282 16.875 36.5202C16.8457 35.8172 16.604 34.6236 16.1499 32.9394C15.6958 31.2551 15.2344 29.3292 14.7656 27.1617C14.2969 24.9941 14.0625 22.9731 14.0625 21.0984V19.6924C14.0625 18.9016 14.3335 18.2352 14.8755 17.6933C15.4175 17.1514 16.084 16.8805 16.875 16.8805C17.5195 16.8805 18.0908 17.0782 18.5889 17.4736C19.0869 17.8691 19.4092 18.3597 19.5557 18.9455C19.6436 18.1254 19.6875 17.437 19.6875 16.8805C19.6875 15.1816 19.7168 13.534 19.7754 11.9376C19.834 10.3412 19.9512 8.55448 20.127 6.57733C20.3027 4.60018 20.5957 3.01113 21.0059 1.81019C21.416 0.609256 21.9141 0.00878735 22.5 0.00878735C23.8184 0.00878735 24.6167 0.675161 24.895 2.00791C25.1733 3.34066 25.3125 6.42355 25.3125 11.2566C25.3125 12.3404 25.4077 13.2777 25.5981 14.0685C25.7886 14.8594 26.023 15.4306 26.3013 15.7821C26.5796 16.1336 26.8579 16.4045 27.1362 16.5949C27.4146 16.7853 27.6416 16.8805 27.8174 16.8805H28.125C28.125 16.0896 28.396 15.4233 28.938 14.8814C29.48 14.3395 30.1465 14.0685 30.9375 14.0685C32.8125 14.0685 33.75 15.9432 33.75 19.6924C33.75 18.9016 34.021 18.2352 34.563 17.6933C35.105 17.1514 35.7715 16.8805 36.5625 16.8805C37.3535 16.8805 38.02 17.1514 38.562 17.6933C39.104 18.2352 39.375 18.9016 39.375 19.6924V22.5044C39.375 21.7135 39.646 21.0472 40.188 20.5053C40.73 19.9634 41.3965 19.6924 42.1875 19.6924C42.9785 19.6924 43.645 19.9634 44.187 20.5053C44.729 21.0472 45 21.7135 45 22.5044V35.1582C45 36.5056 44.8901 37.7211 44.6704 38.8049C44.4507 39.8887 44.187 40.7601 43.8794 41.4192C43.5718 42.0782 43.2056 42.6567 42.7808 43.1547C42.356 43.6526 41.9604 44.0114 41.5942 44.2311C41.228 44.4508 40.8545 44.6265 40.4736 44.7583C40.0928 44.8902 39.8364 44.9634 39.7046 44.978C39.5728 44.9927 39.4629 45 39.375 45ZM37.5732 13.8928C37.3096 14.1564 36.9727 14.0978 36.5625 13.717V8.44464H29.5313C29.1504 8.44464 28.8208 8.30551 28.5425 8.02724C28.2642 7.74897 28.125 7.41945 28.125 7.03866C28.125 6.65788 28.2642 6.32835 28.5425 6.05009C28.8208 5.77182 29.1504 5.63269 29.5313 5.63269H36.5625V0.316344C36.9727 -0.0351494 37.3096 -0.0937317 37.5732 0.140598L44.7363 6.51142C44.9121 6.65788 45 6.83363 45 7.03866C45 7.2437 44.9121 7.41945 44.7363 7.56591L37.5732 13.8928ZM15.4688 8.44464H8.4375V13.717C8.02734 14.0978 7.69043 14.1564 7.42676 13.8928L0.219727 7.56591C0.0732422 7.41945 0 7.2437 0 7.03866C0 6.83363 0.0732422 6.65788 0.219727 6.51142L7.42676 0.140598C7.69043 -0.0937317 8.02734 -0.0351494 8.4375 0.316344V5.63269H15.4688C15.8496 5.63269 16.1792 5.77182 16.4575 6.05009C16.7358 6.32835 16.875 6.65788 16.875 7.03866C16.875 7.41945 16.7358 7.74897 16.4575 8.02724C16.1792 8.30551 15.8496 8.44464 15.4688 8.44464Z" fill="#FFFAF0"/>
</svg>
