<svg width="36" height="36" viewBox="0 0 36 36" fill="none" xmlns="http://www.w3.org/2000/svg">
<path d="M33.2752 17.754L18.7943 3.28366C18.6901 3.17919 18.5662 3.09631 18.4299 3.03976C18.2936 2.98321 18.1474 2.9541 17.9998 2.9541C17.8522 2.9541 17.7061 2.98321 17.5697 3.03976C17.4334 3.09631 17.3095 3.17919 17.2053 3.28366L2.72441 17.754C2.30254 18.1759 2.06348 18.7489 2.06348 19.3466C2.06348 20.5876 3.07246 21.5966 4.31348 21.5966H5.83926V31.9219C5.83926 32.5442 6.34199 33.0469 6.96426 33.0469H15.7498V25.1719H19.6873V33.0469H29.0354C29.6576 33.0469 30.1604 32.5442 30.1604 31.9219V21.5966H31.6861C32.2838 21.5966 32.8568 21.361 33.2787 20.9356C34.1541 20.0567 34.1541 18.6329 33.2752 17.754Z" fill="#FFFAF0"/>
</svg>
