<?xml version="1.0" encoding="utf-8"?>
<!-- Generator: Adobe Illustrator 24.0.0, SVG Export Plug-In . SVG Version: 6.00 Build 0)  -->
<svg version="1.1" id="Lager_1" xmlns="http://www.w3.org/2000/svg" xmlns:xlink="http://www.w3.org/1999/xlink" x="0px" y="0px"
	 viewBox="0 0 1080 385.56" style="enable-background:new 0 0 1080 385.56;" xml:space="preserve">
<style type="text/css">
	.st0{fill:#E76F51;}
	.st1{fill:#E9C46A;}
	.st2{fill:#264653;}
	.st3{fill:#2A9D8F;}
	.st4{fill:#FFFAF0;}
</style>
<path class="st0" d="M-218.3,435.74h-812.48c-4.11,0-7.44-3.33-7.44-7.44v-7.51c0-4.11,3.33-7.44,7.44-7.44h812.48
	c4.11,0,7.44,3.33,7.44,7.44v7.51C-210.86,432.41-214.19,435.74-218.3,435.74z"/>
<path class="st0" d="M-555.33,452.03h-138.41c-5.84,0-10.57-4.73-10.57-10.57v-11.43c0-5.84,4.73-10.57,10.57-10.57h138.41
	c5.84,0,10.57,4.73,10.57,10.57v11.43C-544.76,447.29-549.49,452.03-555.33,452.03z"/>
<path class="st0" d="M-662.38,400.22h-275.19C-937.57,400.22-740.28,357.68-662.38,400.22z"/>
<path class="st0" d="M-633.75,400.22c0,0-82.22-65.28-367.31,0l16.77-35.73C-984.3,364.49-667.88,292.91-633.75,400.22z"/>
<path class="st0" d="M-586.69,400.22h275.19C-311.5,400.22-508.79,357.68-586.69,400.22z"/>
<path class="st0" d="M-615.32,400.22c0,0,82.22-65.28,367.31,0l-16.77-35.73C-264.78,364.49-581.19,292.91-615.32,400.22z"/>
<path class="st1" d="M-212.01,430.53h-812.48c-4.11,0-7.44-3.33-7.44-7.44v-7.51c0-4.11,3.33-7.44,7.44-7.44h812.48
	c4.11,0,7.44,3.33,7.44,7.44v7.51C-204.57,427.2-207.9,430.53-212.01,430.53z"/>
<path class="st1" d="M-549.04,446.82h-138.41c-5.84,0-10.57-4.73-10.57-10.57v-11.43c0-5.84,4.73-10.57,10.57-10.57h138.41
	c5.84,0,10.57,4.73,10.57,10.57v11.43C-538.47,442.09-543.2,446.82-549.04,446.82z"/>
<path class="st1" d="M-656.09,395.01h-275.19C-931.28,395.01-733.99,352.47-656.09,395.01z"/>
<path class="st1" d="M-627.47,395.01c0,0-82.22-65.28-367.31,0l16.77-35.73C-978.01,359.28-661.59,287.7-627.47,395.01z"/>
<path class="st1" d="M-580.4,395.01h275.19C-305.21,395.01-502.5,352.47-580.4,395.01z"/>
<path class="st1" d="M-609.03,395.01c0,0,82.22-65.28,367.31,0l-16.77-35.73C-258.49,359.28-574.9,287.7-609.03,395.01z"/>
<g>
	<path class="st0" d="M-1026.97,202.49c0-23.18-0.46-25.48-10.1-26.85l-6.2-0.92c-2.07-1.15-2.53-8.03,0.92-8.26
		c17.44-1.15,34.2-2.07,57.15-2.07c22.04,0,36.73,2.52,46.82,8.49c9.87,5.97,15.84,15.61,15.84,29.15
		c0,19.28-16.3,26.85-23.41,28.69c-2.3,0.46-4.59,1.38-4.59,2.53c0,0.69,1.15,1.38,3.21,1.84c18.13,3.9,33.51,15.84,33.74,38.1
		c0.23,21.12-12.39,33.51-26.85,38.56c-14.46,5.05-31.68,5.74-45.68,5.74c-8.26,0-16.99-0.92-23.64-0.92
		c-11.25,0-22.49,0.23-35.58,0.69c-1.84-1.38-1.84-7.35,0-8.03l6.66-1.38c10.33-2.07,11.71-3.67,11.71-24.33V202.49z M-995.3,224.76
		c0,5.97,0.23,6.43,12.16,6.43c19.74,0,27.09-12.62,27.09-26.4c0-19.97-12.4-29.84-28.23-29.84c-10.79,0-11.02,1.84-11.02,11.94
		V224.76z M-995.3,277.78c0,17.91,2.3,29.15,20.2,29.15c16.99,0,25.94-13.08,25.94-31.68c0-19.97-11.48-33.97-33.51-33.97
		c-12.63,0-12.63,0.23-12.63,9.41V277.78z"/>
	<path class="st0" d="M-898.9,272.5c-0.23-32.82,25.71-50.96,52.79-50.96c27.08,0,51.42,16.53,51.42,48.89
		c0,33.51-24.56,49.35-52.79,49.35C-874.8,319.79-898.67,304.18-898.9,272.5z M-865.84,267.45c0,24.1,7.58,41.78,20.89,41.78
		c13.08,0,17.44-14.92,17.22-35.58c-0.23-22.27-6.66-41.55-19.74-41.55C-857.58,232.11-865.84,242.43-865.84,267.45z"/>
	<path class="st0" d="M-780.46,272.5c-0.23-32.82,25.71-50.96,52.79-50.96c27.09,0,51.42,16.53,51.42,48.89
		c0,33.51-24.56,49.35-52.79,49.35C-756.36,319.79-780.23,304.18-780.46,272.5z M-747.4,267.45c0,24.1,7.57,41.78,20.89,41.78
		c13.08,0,17.44-14.92,17.21-35.58c-0.23-22.27-6.66-41.55-19.74-41.55C-739.14,232.11-747.4,242.43-747.4,267.45z"/>
	<path class="st0" d="M-651.69,188.95c0-9.18,0-11.71-4.59-14.46l-3.9-2.3c-1.61-1.38-1.61-5.51,0-6.88
		c9.41-2.3,23.41-7.81,35.12-12.85c1.38,0,2.98,0.46,3.9,1.61c-0.46,9.41-0.69,19.05-0.69,33.51v72.07c0,2.52,0.69,3.21,3.21,3.21
		c3.9,0,8.72-1.15,13.31-6.43l9.64-11.25c4.36-5.28,5.51-7.81,5.51-9.18c0-1.15-2.3-2.07-4.36-2.3l-5.74-0.92
		c-2.07-2.07-1.84-7.11,0.46-8.03h5.51c10.79,0,29.84-1.15,43.38-3.21c2.29,1.15,2.52,6.2,0.92,8.03l-7.35,1.61
		c-4.36,0.92-9.18,3.21-15.38,8.03c-8.72,6.66-12.16,10.1-15.38,13.31c-1.15,1.38-1.38,2.29-1.38,2.98c0,0.69,0.46,2.07,1.61,3.9
		c4.13,7.35,24.33,38.56,30.07,43.84c3.22,2.98,7.58,4.13,13.54,5.28l3.44,0.69c1.84,1.61,1.38,7.11-0.92,8.03
		c-7.11-0.46-15.61-0.69-28.92-0.69c-13.54,0-21.8,0.23-28.23,0.69c-2.3-1.15-2.75-5.97-0.92-8.03l2.98-0.69
		c2.29-0.46,3.67-0.92,3.67-1.84s-2.07-4.59-3.9-7.35l-16.3-24.79c-1.61-2.53-3.44-3.44-5.74-3.44c-1.61,0-2.75,1.15-2.75,5.51
		v13.31c0,16.07,0.92,17.9,8.95,18.82l3.67,0.46c1.84,1.38,1.84,6.66-0.23,8.03c-7.35-0.46-16.99-0.69-27.54-0.69
		s-19.97,0.23-28,0.69c-2.07-1.38-2.07-6.66-0.23-8.03l4.36-0.46c8.26-0.92,9.18-2.75,9.18-18.82V188.95z"/>
	<path class="st0" d="M-488.03,278.47c0,10.79,0.92,18.13,3.9,21.81c2.98,3.9,7.11,5.74,23.87,5.74c20.89,0,27.31-0.69,40.86-27.32
		c1.84-2.29,7.12-1.38,8.72,1.38c-1.15,11.94-6.66,30.99-9.87,37.18c-12.17-0.46-34.2-0.69-53.02-0.69h-30.76
		c-10.56,0-22.04,0.23-36.27,0.69c-2.07-1.38-2.53-6.66-0.69-8.03l8.72-1.15c10.33-1.38,11.71-3.21,11.71-24.56v-85.39
		c0-21.35-1.38-23.41-11.71-24.79l-6.66-0.92c-2.3-1.38-2.3-6.66,0.46-8.03c11.94,0.46,23.41,0.69,34.43,0.69
		c11.02,0,22.49-0.23,33.97-0.69c1.84,1.38,1.84,6.66,0,8.03l-5.97,0.92c-10.33,1.61-11.71,3.44-11.71,24.79V278.47z"/>
	<path class="st0" d="M-327.59,285.13c-0.92,15.61,5.74,19.74,10.33,19.74c2.75,0,5.05-0.69,8.72-2.75
		c2.07,0.46,3.44,3.21,2.75,5.28c-2.75,3.67-13.54,12.39-26.63,12.39c-8.03,0-13.08-2.75-19.28-8.03c-1.61-1.38-2.53-1.84-3.67-1.84
		s-2.53,0.92-4.82,2.53c-4.13,2.98-11.02,7.35-19.51,7.35c-13.31,0-25.71-8.03-25.71-24.1c0-11.71,7.11-18.82,23.87-23.87
		c8.72-2.75,15.15-4.59,21.58-6.43c4.13-1.15,5.28-2.75,5.51-4.59c0.23-2.53,0.46-5.05,0.46-7.81c0-8.72-3.44-19.74-13.31-19.74
		c-5.51,0-10.33,3.21-11.94,13.08c-0.46,3.67-1.84,5.74-3.9,7.35c-3.44,2.53-12.4,5.28-16.53,5.28c-3.9,0-5.28-2.53-5.28-5.74
		c0-5.97,5.51-13.31,11.02-17.67c7.8-6.2,22.26-14,38.56-14c19.28,0,30.53,9.64,29.38,33.28L-327.59,285.13z M-355.13,279.16
		c0.23-3.67,0-4.36-1.61-4.13c-10.33,1.38-19.28,5.28-19.28,16.07c0,7.35,5.28,13.77,11.71,13.77c7.12,0,8.49-4.13,8.72-11.25
		L-355.13,279.16z"/>
	<path class="st0" d="M-266.08,222.24c0,3.9,1.15,5.28,2.75,5.74c5.97-3.21,14.46-6.43,24.33-6.43c25.94,0,42.93,19.74,42.93,45.91
		c0,33.28-23.41,52.33-56.47,52.33c-10.33,0-20.2-2.3-24.56-4.13c-3.44-1.38-5.51-2.07-7.11-2.07c-2.3,0-6.2,1.84-7.81,3.44
		c-1.61,0.23-3.44-0.46-4.59-1.61c0.46-2.98,0.69-10.79,0.69-22.72V188.95c0-9.18,0-11.71-4.59-14.46l-3.9-2.3
		c-1.61-1.38-1.61-5.51,0-6.88c9.87-2.3,23.64-7.81,35.35-12.85c1.38,0,2.98,0.46,3.9,1.61c-0.69,9.41-0.92,19.05-0.92,33.51V222.24
		z M-266.08,284.21c0,5.97,1.15,12.17,4.59,17.22c2.98,4.59,7.8,7.8,13.54,7.8c14.92,0,20.2-16.3,20.2-34.66
		c0-22.95-11.25-38.56-27.08-38.56c-4.13,0-7.35,1.15-9.18,2.52c-1.61,1.15-2.07,5.05-2.07,10.56V284.21z"/>
</g>
<g>
	<path class="st1" d="M-1020.69,196.21c0-23.18-0.46-25.48-10.1-26.85l-6.2-0.92c-2.07-1.15-2.53-8.03,0.92-8.26
		c17.44-1.15,34.2-2.07,57.15-2.07c22.04,0,36.73,2.52,46.82,8.49c9.87,5.97,15.84,15.61,15.84,29.15
		c0,19.28-16.3,26.85-23.41,28.69c-2.3,0.46-4.59,1.38-4.59,2.53c0,0.69,1.15,1.38,3.21,1.84c18.13,3.9,33.51,15.84,33.74,38.1
		c0.23,21.12-12.39,33.51-26.85,38.56c-14.46,5.05-31.68,5.74-45.68,5.74c-8.26,0-16.99-0.92-23.64-0.92
		c-11.25,0-22.49,0.23-35.58,0.69c-1.84-1.38-1.84-7.35,0-8.03l6.66-1.38c10.33-2.07,11.71-3.67,11.71-24.33V196.21z
		 M-989.01,218.47c0,5.97,0.23,6.43,12.16,6.43c19.74,0,27.09-12.62,27.09-26.4c0-19.97-12.4-29.84-28.23-29.84
		c-10.79,0-11.02,1.84-11.02,11.94V218.47z M-989.01,271.49c0,17.91,2.3,29.15,20.2,29.15c16.99,0,25.94-13.08,25.94-31.68
		c0-19.97-11.48-33.97-33.51-33.97c-12.63,0-12.63,0.23-12.63,9.41V271.49z"/>
	<path class="st1" d="M-892.61,266.21c-0.23-32.82,25.71-50.96,52.79-50.96c27.08,0,51.42,16.53,51.42,48.89
		c0,33.51-24.56,49.35-52.79,49.35C-868.51,313.5-892.38,297.89-892.61,266.21z M-859.56,261.16c0,24.1,7.58,41.78,20.89,41.78
		c13.08,0,17.44-14.92,17.22-35.58c-0.23-22.27-6.66-41.55-19.74-41.55C-851.29,225.82-859.56,236.15-859.56,261.16z"/>
	<path class="st1" d="M-774.17,266.21c-0.23-32.82,25.71-50.96,52.79-50.96c27.09,0,51.42,16.53,51.42,48.89
		c0,33.51-24.56,49.35-52.79,49.35C-750.07,313.5-773.94,297.89-774.17,266.21z M-741.12,261.16c0,24.1,7.57,41.78,20.89,41.78
		c13.08,0,17.44-14.92,17.21-35.58c-0.23-22.27-6.66-41.55-19.74-41.55C-732.85,225.82-741.12,236.15-741.12,261.16z"/>
	<path class="st1" d="M-645.4,182.66c0-9.18,0-11.71-4.59-14.46l-3.9-2.3c-1.61-1.38-1.61-5.51,0-6.88
		c9.41-2.3,23.41-7.81,35.12-12.85c1.38,0,2.98,0.46,3.9,1.61c-0.46,9.41-0.69,19.05-0.69,33.51v72.07c0,2.52,0.69,3.21,3.21,3.21
		c3.9,0,8.72-1.15,13.31-6.43l9.64-11.25c4.36-5.28,5.51-7.81,5.51-9.18c0-1.15-2.3-2.07-4.36-2.3l-5.74-0.92
		c-2.07-2.07-1.84-7.11,0.46-8.03h5.51c10.79,0,29.84-1.15,43.38-3.21c2.29,1.15,2.52,6.2,0.92,8.03l-7.35,1.61
		c-4.36,0.92-9.18,3.21-15.38,8.03c-8.72,6.66-12.16,10.1-15.38,13.31c-1.15,1.38-1.38,2.29-1.38,2.98c0,0.69,0.46,2.07,1.61,3.9
		c4.13,7.35,24.33,38.56,30.07,43.84c3.22,2.98,7.58,4.13,13.54,5.28l3.44,0.69c1.84,1.61,1.38,7.11-0.92,8.03
		c-7.11-0.46-15.61-0.69-28.92-0.69c-13.54,0-21.8,0.23-28.23,0.69c-2.3-1.15-2.75-5.97-0.92-8.03l2.98-0.69
		c2.29-0.46,3.67-0.92,3.67-1.84s-2.07-4.59-3.9-7.35l-16.3-24.79c-1.61-2.53-3.44-3.44-5.74-3.44c-1.61,0-2.75,1.15-2.75,5.51
		v13.31c0,16.07,0.92,17.9,8.95,18.82l3.67,0.46c1.84,1.38,1.84,6.66-0.23,8.03c-7.35-0.46-16.99-0.69-27.54-0.69
		s-19.97,0.23-28,0.69c-2.07-1.38-2.07-6.66-0.23-8.03l4.36-0.46c8.26-0.92,9.18-2.75,9.18-18.82V182.66z"/>
	<path class="st1" d="M-481.74,272.18c0,10.79,0.92,18.13,3.9,21.81c2.98,3.9,7.11,5.74,23.87,5.74c20.89,0,27.31-0.69,40.86-27.32
		c1.84-2.29,7.12-1.38,8.72,1.38c-1.15,11.94-6.66,30.99-9.87,37.18c-12.17-0.46-34.2-0.69-53.02-0.69h-30.76
		c-10.56,0-22.04,0.23-36.27,0.69c-2.07-1.38-2.53-6.66-0.69-8.03l8.72-1.15c10.33-1.38,11.71-3.21,11.71-24.56v-85.39
		c0-21.35-1.38-23.41-11.71-24.79l-6.66-0.92c-2.3-1.38-2.3-6.66,0.46-8.03c11.94,0.46,23.41,0.69,34.43,0.69
		c11.02,0,22.49-0.23,33.97-0.69c1.84,1.38,1.84,6.66,0,8.03l-5.97,0.92c-10.33,1.61-11.71,3.44-11.71,24.79V272.18z"/>
	<path class="st1" d="M-321.3,278.84c-0.92,15.61,5.74,19.74,10.33,19.74c2.75,0,5.05-0.69,8.72-2.75c2.07,0.46,3.44,3.21,2.75,5.28
		c-2.75,3.67-13.54,12.39-26.63,12.39c-8.03,0-13.08-2.75-19.28-8.03c-1.61-1.38-2.53-1.84-3.67-1.84c-1.15,0-2.53,0.92-4.82,2.53
		c-4.13,2.98-11.02,7.35-19.51,7.35c-13.31,0-25.71-8.03-25.71-24.1c0-11.71,7.11-18.82,23.87-23.87
		c8.72-2.75,15.15-4.59,21.58-6.43c4.13-1.15,5.28-2.75,5.51-4.59c0.23-2.53,0.46-5.05,0.46-7.81c0-8.72-3.44-19.74-13.31-19.74
		c-5.51,0-10.33,3.21-11.94,13.08c-0.46,3.67-1.84,5.74-3.9,7.35c-3.44,2.53-12.4,5.28-16.53,5.28c-3.9,0-5.28-2.53-5.28-5.74
		c0-5.97,5.51-13.31,11.02-17.67c7.8-6.2,22.26-14,38.56-14c19.28,0,30.53,9.64,29.38,33.28L-321.3,278.84z M-348.85,272.87
		c0.23-3.67,0-4.36-1.61-4.13c-10.33,1.38-19.28,5.28-19.28,16.07c0,7.35,5.28,13.77,11.71,13.77c7.12,0,8.49-4.13,8.72-11.25
		L-348.85,272.87z"/>
	<path class="st1" d="M-259.79,215.95c0,3.9,1.15,5.28,2.75,5.74c5.97-3.21,14.46-6.43,24.33-6.43c25.94,0,42.93,19.74,42.93,45.91
		c0,33.28-23.41,52.33-56.47,52.33c-10.33,0-20.2-2.3-24.56-4.13c-3.44-1.38-5.51-2.07-7.11-2.07c-2.3,0-6.2,1.84-7.81,3.44
		c-1.61,0.23-3.44-0.46-4.59-1.61c0.46-2.98,0.69-10.79,0.69-22.72V182.66c0-9.18,0-11.71-4.59-14.46l-3.9-2.3
		c-1.61-1.38-1.61-5.51,0-6.88c9.87-2.3,23.64-7.81,35.35-12.85c1.38,0,2.98,0.46,3.9,1.61c-0.69,9.41-0.92,19.05-0.92,33.51V215.95
		z M-259.79,277.92c0,5.97,1.15,12.17,4.59,17.22c2.98,4.59,7.8,7.8,13.54,7.8c14.92,0,20.2-16.3,20.2-34.66
		c0-22.95-11.25-38.56-27.08-38.56c-4.13,0-7.35,1.15-9.18,2.52c-1.61,1.15-2.07,5.05-2.07,10.56V277.92z"/>
</g>
<path class="st2" d="M-249.85-168.98h-812.48c-4.11,0-7.44-3.33-7.44-7.44v-7.51c0-4.11,3.33-7.44,7.44-7.44h812.48
	c4.11,0,7.44,3.33,7.44,7.44v7.51C-242.41-172.31-245.74-168.98-249.85-168.98z"/>
<path class="st2" d="M-586.89-152.69H-725.3c-5.84,0-10.57-4.73-10.57-10.57v-11.43c0-5.84,4.73-10.57,10.57-10.57h138.41
	c5.84,0,10.57,4.73,10.57,10.57v11.43C-576.31-157.42-581.05-152.69-586.89-152.69z"/>
<path class="st2" d="M-693.93-204.5h-275.19C-969.13-204.5-771.83-247.04-693.93-204.5z"/>
<path class="st2" d="M-665.31-204.5c0,0-82.22-65.28-367.31,0l16.77-35.73C-1015.85-240.23-699.44-311.81-665.31-204.5z"/>
<path class="st2" d="M-618.25-204.5h275.19C-343.05-204.5-540.35-247.04-618.25-204.5z"/>
<path class="st2" d="M-646.87-204.5c0,0,82.22-65.28,367.31,0l-16.77-35.73C-296.33-240.23-612.75-311.81-646.87-204.5z"/>
<path class="st3" d="M-243.56-174.19h-812.48c-4.11,0-7.44-3.33-7.44-7.44v-7.51c0-4.11,3.33-7.44,7.44-7.44h812.48
	c4.11,0,7.44,3.33,7.44,7.44v7.51C-236.12-177.52-239.45-174.19-243.56-174.19z"/>
<path class="st3" d="M-580.6-157.9h-138.41c-5.84,0-10.57-4.73-10.57-10.57v-11.43c0-5.84,4.73-10.57,10.57-10.57h138.41
	c5.84,0,10.57,4.73,10.57,10.57v11.43C-570.02-162.63-574.76-157.9-580.6-157.9z"/>
<path class="st3" d="M-687.65-209.71h-275.19C-962.84-209.71-765.54-252.25-687.65-209.71z"/>
<path class="st3" d="M-659.02-209.71c0,0-82.22-65.28-367.31,0l16.77-35.73C-1009.56-245.44-693.15-317.02-659.02-209.71z"/>
<path class="st3" d="M-611.96-209.71h275.19C-336.76-209.71-534.06-252.25-611.96-209.71z"/>
<path class="st3" d="M-640.58-209.71c0,0,82.22-65.28,367.31,0l-16.77-35.73C-290.04-245.44-606.46-317.02-640.58-209.71z"/>
<g>
	<path class="st2" d="M-1058.53-402.22c0-23.18-0.46-25.48-10.1-26.85l-6.2-0.92c-2.07-1.15-2.53-8.03,0.92-8.26
		c17.44-1.15,34.2-2.07,57.15-2.07c22.04,0,36.73,2.52,46.82,8.49c9.87,5.97,15.84,15.61,15.84,29.15
		c0,19.28-16.3,26.85-23.41,28.69c-2.3,0.46-4.59,1.38-4.59,2.53c0,0.69,1.15,1.38,3.21,1.84c18.13,3.9,33.51,15.84,33.74,38.1
		c0.23,21.12-12.39,33.51-26.85,38.56c-14.46,5.05-31.68,5.74-45.68,5.74c-8.26,0-16.99-0.92-23.64-0.92
		c-11.25,0-22.49,0.23-35.58,0.69c-1.84-1.38-1.84-7.35,0-8.03l6.66-1.38c10.33-2.07,11.71-3.67,11.71-24.33V-402.22z
		 M-1026.85-379.96c0,5.97,0.23,6.43,12.16,6.43c19.74,0,27.09-12.62,27.09-26.4c0-19.97-12.4-29.84-28.23-29.84
		c-10.79,0-11.02,1.84-11.02,11.94V-379.96z M-1026.85-326.94c0,17.91,2.3,29.15,20.2,29.15c16.99,0,25.94-13.08,25.94-31.68
		c0-19.97-11.48-33.97-33.51-33.97c-12.63,0-12.63,0.23-12.63,9.41V-326.94z"/>
	<path class="st2" d="M-930.45-332.22c-0.23-32.82,25.71-50.96,52.79-50.96c27.08,0,51.42,16.53,51.42,48.89
		c0,33.51-24.56,49.35-52.79,49.35C-906.35-284.93-930.22-300.54-930.45-332.22z M-897.4-337.27c0,24.1,7.58,41.78,20.89,41.78
		c13.08,0,17.44-14.92,17.22-35.58c-0.23-22.27-6.66-41.55-19.74-41.55C-889.14-372.61-897.4-362.28-897.4-337.27z"/>
	<path class="st2" d="M-812.01-332.22c-0.23-32.82,25.71-50.96,52.79-50.96c27.09,0,51.42,16.53,51.42,48.89
		c0,33.51-24.56,49.35-52.79,49.35C-787.91-284.93-811.78-300.54-812.01-332.22z M-778.96-337.27c0,24.1,7.57,41.78,20.89,41.78
		c13.08,0,17.44-14.92,17.21-35.58c-0.23-22.27-6.66-41.55-19.74-41.55C-770.7-372.61-778.96-362.28-778.96-337.27z"/>
	<path class="st2" d="M-683.24-415.77c0-9.18,0-11.71-4.59-14.46l-3.9-2.3c-1.61-1.38-1.61-5.51,0-6.88
		c9.41-2.3,23.41-7.81,35.12-12.85c1.38,0,2.98,0.46,3.9,1.61c-0.46,9.41-0.69,19.05-0.69,33.51v72.07c0,2.52,0.69,3.21,3.21,3.21
		c3.9,0,8.72-1.15,13.31-6.43l9.64-11.25c4.36-5.28,5.51-7.81,5.51-9.18c0-1.15-2.3-2.07-4.36-2.3l-5.74-0.92
		c-2.07-2.07-1.84-7.11,0.46-8.03h5.51c10.79,0,29.84-1.15,43.38-3.21c2.29,1.15,2.52,6.2,0.92,8.03l-7.35,1.61
		c-4.36,0.92-9.18,3.21-15.38,8.03c-8.72,6.66-12.16,10.1-15.38,13.31c-1.15,1.38-1.38,2.29-1.38,2.98c0,0.69,0.46,2.07,1.61,3.9
		c4.13,7.35,24.33,38.56,30.07,43.84c3.22,2.98,7.58,4.13,13.54,5.28l3.44,0.69c1.84,1.61,1.38,7.11-0.92,8.03
		c-7.11-0.46-15.61-0.69-28.92-0.69c-13.54,0-21.8,0.23-28.23,0.69c-2.3-1.15-2.75-5.97-0.92-8.03l2.98-0.69
		c2.29-0.46,3.67-0.92,3.67-1.84c0-0.92-2.07-4.59-3.9-7.35l-16.3-24.79c-1.61-2.53-3.44-3.44-5.74-3.44
		c-1.61,0-2.75,1.15-2.75,5.51v13.31c0,16.07,0.92,17.9,8.95,18.82l3.67,0.46c1.84,1.38,1.84,6.66-0.23,8.03
		c-7.35-0.46-16.99-0.69-27.54-0.69s-19.97,0.23-28,0.69c-2.07-1.38-2.07-6.66-0.23-8.03l4.36-0.46c8.26-0.92,9.18-2.75,9.18-18.82
		V-415.77z"/>
	<path class="st2" d="M-519.59-326.25c0,10.79,0.92,18.13,3.9,21.81c2.98,3.9,7.11,5.74,23.87,5.74c20.89,0,27.31-0.69,40.86-27.32
		c1.84-2.29,7.12-1.38,8.72,1.38c-1.15,11.94-6.66,30.99-9.87,37.18c-12.17-0.46-34.2-0.69-53.02-0.69h-30.76
		c-10.56,0-22.04,0.23-36.27,0.69c-2.07-1.38-2.53-6.66-0.69-8.03l8.72-1.15c10.33-1.38,11.71-3.21,11.71-24.56v-85.39
		c0-21.35-1.38-23.41-11.71-24.79l-6.66-0.92c-2.3-1.38-2.3-6.66,0.46-8.03c11.94,0.46,23.41,0.69,34.43,0.69
		c11.02,0,22.49-0.23,33.97-0.69c1.84,1.38,1.84,6.66,0,8.03l-5.97,0.92c-10.33,1.61-11.71,3.44-11.71,24.79V-326.25z"/>
	<path class="st2" d="M-359.15-319.59c-0.92,15.61,5.74,19.74,10.33,19.74c2.75,0,5.05-0.69,8.72-2.75
		c2.07,0.46,3.44,3.21,2.75,5.28c-2.75,3.67-13.54,12.39-26.63,12.39c-8.03,0-13.08-2.75-19.28-8.03c-1.61-1.38-2.53-1.84-3.67-1.84
		c-1.15,0-2.53,0.92-4.82,2.53c-4.13,2.98-11.02,7.35-19.51,7.35c-13.31,0-25.71-8.03-25.71-24.1c0-11.71,7.11-18.82,23.87-23.87
		c8.72-2.75,15.15-4.59,21.58-6.43c4.13-1.15,5.28-2.75,5.51-4.59c0.23-2.53,0.46-5.05,0.46-7.81c0-8.72-3.44-19.74-13.31-19.74
		c-5.51,0-10.33,3.21-11.94,13.08c-0.46,3.67-1.84,5.74-3.9,7.35c-3.44,2.53-12.4,5.28-16.53,5.28c-3.9,0-5.28-2.53-5.28-5.74
		c0-5.97,5.51-13.31,11.02-17.67c7.8-6.2,22.26-14,38.56-14c19.28,0,30.53,9.64,29.38,33.28L-359.15-319.59z M-386.69-325.56
		c0.23-3.67,0-4.36-1.61-4.13c-10.33,1.38-19.28,5.28-19.28,16.07c0,7.35,5.28,13.77,11.71,13.77c7.12,0,8.49-4.13,8.72-11.25
		L-386.69-325.56z"/>
	<path class="st2" d="M-297.63-382.48c0,3.9,1.15,5.28,2.75,5.74c5.97-3.21,14.46-6.43,24.33-6.43c25.94,0,42.93,19.74,42.93,45.91
		c0,33.28-23.41,52.33-56.47,52.33c-10.33,0-20.2-2.3-24.56-4.13c-3.44-1.38-5.51-2.07-7.11-2.07c-2.3,0-6.2,1.84-7.81,3.44
		c-1.61,0.23-3.44-0.46-4.59-1.61c0.46-2.98,0.69-10.79,0.69-22.72v-103.75c0-9.18,0-11.71-4.59-14.46l-3.9-2.3
		c-1.61-1.38-1.61-5.51,0-6.88c9.87-2.3,23.64-7.81,35.35-12.85c1.38,0,2.98,0.46,3.9,1.61c-0.69,9.41-0.92,19.05-0.92,33.51
		V-382.48z M-297.63-320.51c0,5.97,1.15,12.17,4.59,17.22c2.98,4.59,7.8,7.8,13.54,7.8c14.92,0,20.2-16.3,20.2-34.66
		c0-22.95-11.25-38.56-27.08-38.56c-4.13,0-7.35,1.15-9.18,2.52c-1.61,1.15-2.07,5.05-2.07,10.56V-320.51z"/>
</g>
<g>
	<path class="st3" d="M-1052.24-408.51c0-23.18-0.46-25.48-10.1-26.85l-6.2-0.92c-2.07-1.15-2.53-8.03,0.92-8.26
		c17.44-1.15,34.2-2.07,57.15-2.07c22.04,0,36.73,2.52,46.82,8.49c9.87,5.97,15.84,15.61,15.84,29.15
		c0,19.28-16.3,26.85-23.41,28.69c-2.3,0.46-4.59,1.38-4.59,2.53c0,0.69,1.15,1.38,3.21,1.84c18.13,3.9,33.51,15.84,33.74,38.1
		c0.23,21.12-12.39,33.51-26.85,38.56c-14.46,5.05-31.68,5.74-45.68,5.74c-8.26,0-16.99-0.92-23.64-0.92
		c-11.25,0-22.49,0.23-35.58,0.69c-1.84-1.38-1.84-7.35,0-8.03l6.66-1.38c10.33-2.07,11.71-3.67,11.71-24.33V-408.51z
		 M-1020.57-386.25c0,5.97,0.23,6.43,12.16,6.43c19.74,0,27.09-12.62,27.09-26.4c0-19.97-12.4-29.84-28.23-29.84
		c-10.79,0-11.02,1.84-11.02,11.94V-386.25z M-1020.57-333.23c0,17.91,2.3,29.15,20.2,29.15c16.99,0,25.94-13.08,25.94-31.68
		c0-19.97-11.48-33.97-33.51-33.97c-12.63,0-12.63,0.23-12.63,9.41V-333.23z"/>
	<path class="st3" d="M-924.16-338.5c-0.23-32.82,25.71-50.96,52.79-50.96c27.08,0,51.42,16.53,51.42,48.89
		c0,33.51-24.56,49.35-52.79,49.35C-900.06-291.22-923.93-306.83-924.16-338.5z M-891.11-343.55c0,24.1,7.58,41.78,20.89,41.78
		c13.08,0,17.44-14.92,17.22-35.58c-0.23-22.27-6.66-41.55-19.74-41.55C-882.85-378.9-891.11-368.57-891.11-343.55z"/>
	<path class="st3" d="M-805.72-338.5c-0.23-32.82,25.71-50.96,52.79-50.96c27.09,0,51.42,16.53,51.42,48.89
		c0,33.51-24.56,49.35-52.79,49.35C-781.62-291.22-805.49-306.83-805.72-338.5z M-772.67-343.55c0,24.1,7.57,41.78,20.89,41.78
		c13.08,0,17.44-14.92,17.21-35.58c-0.23-22.27-6.66-41.55-19.74-41.55C-764.41-378.9-772.67-368.57-772.67-343.55z"/>
	<path class="st3" d="M-676.96-422.05c0-9.18,0-11.71-4.59-14.46l-3.9-2.3c-1.61-1.38-1.61-5.51,0-6.88
		c9.41-2.3,23.41-7.81,35.12-12.85c1.38,0,2.98,0.46,3.9,1.61c-0.46,9.41-0.69,19.05-0.69,33.51v72.07c0,2.52,0.69,3.21,3.21,3.21
		c3.9,0,8.72-1.15,13.31-6.43l9.64-11.25c4.36-5.28,5.51-7.81,5.51-9.18c0-1.15-2.3-2.07-4.36-2.3l-5.74-0.92
		c-2.07-2.07-1.84-7.11,0.46-8.03h5.51c10.79,0,29.84-1.15,43.38-3.21c2.29,1.15,2.52,6.2,0.92,8.03l-7.35,1.61
		c-4.36,0.92-9.18,3.21-15.38,8.03c-8.72,6.66-12.16,10.1-15.38,13.31c-1.15,1.38-1.38,2.29-1.38,2.98c0,0.69,0.46,2.07,1.61,3.9
		c4.13,7.35,24.33,38.56,30.07,43.84c3.22,2.98,7.58,4.13,13.54,5.28l3.44,0.69c1.84,1.61,1.38,7.11-0.92,8.03
		c-7.11-0.46-15.61-0.69-28.92-0.69c-13.54,0-21.8,0.23-28.23,0.69c-2.3-1.15-2.75-5.97-0.92-8.03l2.98-0.69
		c2.29-0.46,3.67-0.92,3.67-1.84s-2.07-4.59-3.9-7.35l-16.3-24.79c-1.61-2.53-3.44-3.44-5.74-3.44c-1.61,0-2.75,1.15-2.75,5.51
		v13.31c0,16.07,0.92,17.9,8.95,18.82l3.67,0.46c1.84,1.38,1.84,6.66-0.23,8.03c-7.35-0.46-16.99-0.69-27.54-0.69
		s-19.97,0.23-28,0.69c-2.07-1.38-2.07-6.66-0.23-8.03l4.36-0.46c8.26-0.92,9.18-2.75,9.18-18.82V-422.05z"/>
	<path class="st3" d="M-513.3-332.54c0,10.79,0.92,18.13,3.9,21.81c2.98,3.9,7.11,5.74,23.87,5.74c20.89,0,27.31-0.69,40.86-27.32
		c1.84-2.29,7.12-1.38,8.72,1.38c-1.15,11.94-6.66,30.99-9.87,37.18c-12.17-0.46-34.2-0.69-53.02-0.69h-30.76
		c-10.56,0-22.04,0.23-36.27,0.69c-2.07-1.38-2.53-6.66-0.69-8.03l8.72-1.15c10.33-1.38,11.71-3.21,11.71-24.56v-85.39
		c0-21.35-1.38-23.41-11.71-24.79l-6.66-0.92c-2.3-1.38-2.3-6.66,0.46-8.03c11.94,0.46,23.41,0.69,34.43,0.69s22.49-0.23,33.97-0.69
		c1.84,1.38,1.84,6.66,0,8.03l-5.97,0.92c-10.33,1.61-11.71,3.44-11.71,24.79V-332.54z"/>
	<path class="st3" d="M-352.86-325.88c-0.92,15.61,5.74,19.74,10.33,19.74c2.75,0,5.05-0.69,8.72-2.75
		c2.07,0.46,3.44,3.21,2.75,5.28c-2.75,3.67-13.54,12.39-26.63,12.39c-8.03,0-13.08-2.75-19.28-8.03c-1.61-1.38-2.53-1.84-3.67-1.84
		c-1.15,0-2.53,0.92-4.82,2.53c-4.13,2.98-11.02,7.35-19.51,7.35c-13.31,0-25.71-8.03-25.71-24.1c0-11.71,7.11-18.82,23.87-23.87
		c8.72-2.75,15.15-4.59,21.58-6.43c4.13-1.15,5.28-2.75,5.51-4.59c0.23-2.53,0.46-5.05,0.46-7.81c0-8.72-3.44-19.74-13.31-19.74
		c-5.51,0-10.33,3.21-11.94,13.08c-0.46,3.67-1.84,5.74-3.9,7.35c-3.44,2.53-12.4,5.28-16.53,5.28c-3.9,0-5.28-2.53-5.28-5.74
		c0-5.97,5.51-13.31,11.02-17.67c7.8-6.2,22.26-14,38.56-14c19.28,0,30.53,9.64,29.38,33.28L-352.86-325.88z M-380.4-331.85
		c0.23-3.67,0-4.36-1.61-4.13c-10.33,1.38-19.28,5.28-19.28,16.07c0,7.35,5.28,13.77,11.71,13.77c7.12,0,8.49-4.13,8.72-11.25
		L-380.4-331.85z"/>
	<path class="st3" d="M-291.34-388.77c0,3.9,1.15,5.28,2.75,5.74c5.97-3.21,14.46-6.43,24.33-6.43c25.94,0,42.93,19.74,42.93,45.91
		c0,33.28-23.41,52.33-56.47,52.33c-10.33,0-20.2-2.3-24.56-4.13c-3.44-1.38-5.51-2.07-7.11-2.07c-2.3,0-6.2,1.84-7.81,3.44
		c-1.61,0.23-3.44-0.46-4.59-1.61c0.46-2.98,0.69-10.79,0.69-22.72v-103.75c0-9.18,0-11.71-4.59-14.46l-3.9-2.3
		c-1.61-1.38-1.61-5.51,0-6.88c9.87-2.3,23.64-7.81,35.35-12.85c1.38,0,2.98,0.46,3.9,1.61c-0.69,9.41-0.92,19.05-0.92,33.51
		V-388.77z M-291.34-326.8c0,5.97,1.15,12.17,4.59,17.22c2.98,4.59,7.8,7.8,13.54,7.8c14.92,0,20.2-16.3,20.2-34.66
		c0-22.95-11.25-38.56-27.08-38.56c-4.13,0-7.35,1.15-9.18,2.52c-1.61,1.15-2.07,5.05-2.07,10.56V-326.8z"/>
</g>
<path class="st4" d="M665.59-532.97h-812.48c-4.11,0-7.44-3.33-7.44-7.44v-7.51c0-4.11,3.33-7.44,7.44-7.44h812.48
	c4.11,0,7.44,3.33,7.44,7.44v7.51C673.03-536.3,669.7-532.97,665.59-532.97z"/>
<path class="st4" d="M328.55-516.68H190.14c-5.84,0-10.57-4.73-10.57-10.57v-11.43c0-5.84,4.73-10.57,10.57-10.57h138.41
	c5.84,0,10.57,4.73,10.57,10.57v11.43C339.13-521.41,334.39-516.68,328.55-516.68z"/>
<path class="st4" d="M221.5-568.49H-53.69C-53.69-568.49,143.61-611.03,221.5-568.49z"/>
<path class="st4" d="M250.13-568.49c0,0-82.22-65.28-367.31,0l16.77-35.73C-100.41-604.22,216-675.8,250.13-568.49z"/>
<path class="st4" d="M297.19-568.49h275.19C572.39-568.49,375.09-611.03,297.19-568.49z"/>
<path class="st4" d="M268.57-568.49c0,0,82.22-65.28,367.31,0l-16.77-35.73C619.11-604.22,302.69-675.8,268.57-568.49z"/>
<g>
	<path class="st4" d="M-143.09-767.29c0-23.18-0.46-25.48-10.1-26.85l-6.2-0.92c-2.07-1.15-2.53-8.03,0.92-8.26
		c17.44-1.15,34.2-2.07,57.15-2.07c22.04,0,36.73,2.52,46.82,8.49c9.87,5.97,15.84,15.61,15.84,29.15
		c0,19.28-16.3,26.85-23.41,28.69c-2.3,0.46-4.59,1.38-4.59,2.53c0,0.69,1.15,1.38,3.21,1.84c18.13,3.9,33.51,15.84,33.74,38.1
		c0.23,21.12-12.39,33.51-26.85,38.56c-14.46,5.05-31.68,5.74-45.68,5.74c-8.26,0-16.99-0.92-23.64-0.92
		c-11.25,0-22.49,0.23-35.58,0.69c-1.84-1.38-1.84-7.35,0-8.03l6.66-1.38c10.33-2.07,11.71-3.67,11.71-24.33V-767.29z
		 M-111.42-745.03c0,5.97,0.23,6.43,12.16,6.43c19.74,0,27.09-12.62,27.09-26.4c0-19.97-12.4-29.84-28.23-29.84
		c-10.79,0-11.02,1.84-11.02,11.94V-745.03z M-111.42-692.01c0,17.91,2.3,29.15,20.2,29.15c16.99,0,25.94-13.08,25.94-31.68
		c0-19.97-11.48-33.97-33.51-33.97c-12.63,0-12.63,0.23-12.63,9.41V-692.01z"/>
	<path class="st4" d="M-15.01-697.28c-0.23-32.82,25.71-50.96,52.79-50.96c27.08,0,51.42,16.53,51.42,48.89
		C89.2-665.84,64.64-650,36.4-650C9.09-650-14.78-665.61-15.01-697.28z M18.04-702.33c0,24.1,7.58,41.78,20.89,41.78
		c13.08,0,17.44-14.92,17.22-35.58c-0.23-22.27-6.66-41.55-19.74-41.55C26.3-737.68,18.04-727.35,18.04-702.33z"/>
	<path class="st4" d="M103.43-697.28c-0.23-32.82,25.71-50.96,52.79-50.96c27.09,0,51.42,16.53,51.42,48.89
		c0,33.51-24.56,49.35-52.79,49.35C127.53-650,103.65-665.61,103.43-697.28z M136.48-702.33c0,24.1,7.57,41.78,20.89,41.78
		c13.08,0,17.44-14.92,17.21-35.58c-0.23-22.27-6.66-41.55-19.74-41.55C144.74-737.68,136.48-727.35,136.48-702.33z"/>
	<path class="st4" d="M232.19-780.83c0-9.18,0-11.71-4.59-14.46l-3.9-2.3c-1.61-1.38-1.61-5.51,0-6.88
		c9.41-2.3,23.41-7.81,35.12-12.85c1.38,0,2.98,0.46,3.9,1.61c-0.46,9.41-0.69,19.05-0.69,33.51v72.07c0,2.52,0.69,3.21,3.21,3.21
		c3.9,0,8.72-1.15,13.31-6.43l9.64-11.25c4.36-5.28,5.51-7.81,5.51-9.18c0-1.15-2.3-2.07-4.36-2.3l-5.74-0.92
		c-2.07-2.07-1.84-7.11,0.46-8.03h5.51c10.79,0,29.84-1.15,43.38-3.21c2.29,1.15,2.52,6.2,0.92,8.03l-7.35,1.61
		c-4.36,0.92-9.18,3.21-15.38,8.03c-8.72,6.66-12.16,10.1-15.38,13.31c-1.15,1.38-1.38,2.29-1.38,2.98c0,0.69,0.46,2.07,1.61,3.9
		c4.13,7.35,24.33,38.56,30.07,43.84c3.21,2.98,7.58,4.13,13.54,5.28l3.44,0.69c1.84,1.61,1.38,7.11-0.92,8.03
		c-7.11-0.46-15.61-0.69-28.92-0.69c-13.54,0-21.8,0.23-28.23,0.69c-2.3-1.15-2.75-5.97-0.92-8.03l2.98-0.69
		c2.29-0.46,3.67-0.92,3.67-1.84s-2.07-4.59-3.9-7.35l-16.3-24.79c-1.61-2.53-3.44-3.44-5.74-3.44c-1.61,0-2.75,1.15-2.75,5.51
		v13.31c0,16.07,0.92,17.9,8.95,18.82l3.67,0.46c1.84,1.38,1.84,6.66-0.23,8.03c-7.35-0.46-16.99-0.69-27.54-0.69
		s-19.97,0.23-28,0.69c-2.07-1.38-2.07-6.66-0.23-8.03l4.36-0.46c8.26-0.92,9.18-2.75,9.18-18.82V-780.83z"/>
	<path class="st4" d="M395.85-691.32c0,10.79,0.92,18.13,3.9,21.81c2.98,3.9,7.11,5.74,23.87,5.74c20.89,0,27.31-0.69,40.86-27.32
		c1.84-2.29,7.12-1.38,8.72,1.38c-1.15,11.94-6.66,30.99-9.87,37.18c-12.17-0.46-34.2-0.69-53.02-0.69h-30.76
		c-10.56,0-22.04,0.23-36.27,0.69c-2.07-1.38-2.53-6.66-0.69-8.03l8.72-1.15c10.33-1.38,11.71-3.21,11.71-24.56v-85.39
		c0-21.35-1.38-23.41-11.71-24.79l-6.66-0.92c-2.3-1.38-2.3-6.66,0.46-8.03c11.94,0.46,23.41,0.69,34.43,0.69
		c11.02,0,22.49-0.23,33.97-0.69c1.84,1.38,1.84,6.66,0,8.03l-5.97,0.92c-10.33,1.61-11.71,3.44-11.71,24.79V-691.32z"/>
	<path class="st4" d="M556.29-684.66c-0.92,15.61,5.74,19.74,10.33,19.74c2.75,0,5.05-0.69,8.72-2.75c2.07,0.46,3.44,3.21,2.75,5.28
		c-2.75,3.67-13.54,12.39-26.63,12.39c-8.03,0-13.08-2.75-19.28-8.03c-1.61-1.38-2.53-1.84-3.67-1.84c-1.15,0-2.53,0.92-4.82,2.53
		c-4.13,2.98-11.02,7.35-19.51,7.35c-13.31,0-25.71-8.03-25.71-24.1c0-11.71,7.11-18.82,23.87-23.87
		c8.72-2.75,15.15-4.59,21.58-6.43c4.13-1.15,5.28-2.75,5.51-4.59c0.23-2.53,0.46-5.05,0.46-7.81c0-8.72-3.44-19.74-13.31-19.74
		c-5.51,0-10.33,3.21-11.94,13.08c-0.46,3.67-1.84,5.74-3.9,7.35c-3.44,2.53-12.4,5.28-16.53,5.28c-3.9,0-5.28-2.53-5.28-5.74
		c0-5.97,5.51-13.31,11.02-17.67c7.8-6.2,22.26-14,38.56-14c19.28,0,30.53,9.64,29.38,33.28L556.29-684.66z M528.75-690.63
		c0.23-3.67,0-4.36-1.61-4.13c-10.33,1.38-19.28,5.28-19.28,16.07c0,7.35,5.28,13.77,11.71,13.77c7.12,0,8.49-4.13,8.72-11.25
		L528.75-690.63z"/>
	<path class="st4" d="M617.81-747.55c0,3.9,1.15,5.28,2.75,5.74c5.97-3.21,14.46-6.43,24.33-6.43c25.94,0,42.93,19.74,42.93,45.91
		c0,33.28-23.41,52.33-56.47,52.33c-10.33,0-20.2-2.3-24.56-4.13c-3.44-1.38-5.51-2.07-7.11-2.07c-2.3,0-6.2,1.84-7.81,3.44
		c-1.61,0.23-3.44-0.46-4.59-1.61c0.46-2.98,0.69-10.79,0.69-22.72v-103.75c0-9.18,0-11.71-4.59-14.46l-3.9-2.3
		c-1.61-1.38-1.61-5.51,0-6.88c9.87-2.3,23.64-7.81,35.35-12.85c1.38,0,2.98,0.46,3.9,1.61c-0.69,9.41-0.92,19.05-0.92,33.51
		V-747.55z M617.81-685.58c0,5.97,1.15,12.17,4.59,17.22c2.98,4.59,7.8,7.8,13.54,7.8c14.92,0,20.2-16.3,20.2-34.66
		c0-22.95-11.25-38.56-27.08-38.56c-4.13,0-7.35,1.15-9.18,2.52c-1.61,1.15-2.07,5.05-2.07,10.56V-685.58z"/>
</g>
<path class="st4" d="M946.24,336.8H133.76c-4.11,0-7.44-3.33-7.44-7.44v-7.51c0-4.11,3.33-7.44,7.44-7.44h812.48
	c4.11,0,7.44,3.33,7.44,7.44v7.51C953.68,333.47,950.35,336.8,946.24,336.8z"/>
<path class="st4" d="M609.2,353.09H470.8c-5.84,0-10.57-4.73-10.57-10.57v-11.43c0-5.84,4.73-10.57,10.57-10.57H609.2
	c5.84,0,10.57,4.73,10.57,10.57v11.43C619.78,348.36,615.04,353.09,609.2,353.09z"/>
<path class="st4" d="M502.16,301.28H226.96C226.96,301.28,424.26,258.75,502.16,301.28z"/>
<path class="st4" d="M530.78,301.28c0,0-82.22-65.28-367.31,0l16.77-35.73C180.24,265.55,496.65,193.97,530.78,301.28z"/>
<path class="st4" d="M577.84,301.28h275.19C853.04,301.28,655.74,258.75,577.84,301.28z"/>
<path class="st4" d="M549.22,301.28c0,0,82.22-65.28,367.31,0l-16.77-35.73C899.76,265.55,583.35,193.97,549.22,301.28z"/>
<g>
	<path class="st4" d="M150.78,63.21c3.61,0.13,8.38,0.25,14.3,0.37c5.92,0.13,11.87,0.19,17.85,0.19c6.23,0,12.21-0.06,17.94-0.19
		c5.73-0.12,9.78-0.19,12.15-0.19c17.07,0,29.78,2.74,38.13,8.22c8.35,5.48,12.52,12.52,12.52,21.12c0,4.36-1.56,8.88-4.67,13.55
		c-3.12,4.67-7.85,8.78-14.2,12.33c-6.35,3.55-14.45,5.95-24.3,7.2v0.37c12.83,0.63,23.11,2.62,30.84,5.98
		c7.72,3.36,13.33,7.45,16.82,12.24c3.49,4.8,5.23,9.75,5.23,14.86c0,12.46-4.98,21.62-14.95,27.47
		c-9.97,5.86-23.67,8.78-41.12,8.78c-2.99,0-7.38-0.09-13.18-0.28c-5.79-0.19-12.74-0.28-20.84-0.28c-6.23,0-12.3,0.03-18.22,0.09
		c-5.92,0.06-10.68,0.22-14.3,0.47v-3.74c3.86-0.25,6.73-0.75,8.6-1.5c1.87-0.75,3.11-2.24,3.74-4.49
		c0.62-2.24,0.93-5.61,0.93-10.09v-92.7c0-4.61-0.31-8-0.93-10.19c-0.63-2.18-1.9-3.67-3.83-4.49c-1.93-0.81-4.77-1.28-8.5-1.4
		V63.21z M212.08,66.95c-4.24,0-6.98,1.06-8.22,3.18c-1.25,2.12-1.87,6.42-1.87,12.9v92.7c0,6.48,0.78,10.68,2.34,12.61
		c1.56,1.93,4.83,2.9,9.81,2.9c6.98,0,12.05-2.83,15.23-8.5c3.18-5.67,4.77-13.74,4.77-24.2c0-9.59-2.28-17.01-6.82-22.24
		c-4.55-5.23-12.12-7.85-22.71-7.85h-13.64v-3.18h16.07c4.86,0,8.6-1.4,11.21-4.2c2.62-2.8,4.42-6.54,5.42-11.21
		c1-4.67,1.5-9.69,1.5-15.04c0-9.22-1-16.17-2.99-20.84C220.18,69.28,216.81,66.95,212.08,66.95z"/>
	<path class="st4" d="M330.94,95.92c9.72,0,18.16,1.65,25.32,4.95c7.16,3.3,12.74,8.69,16.73,16.17c3.99,7.48,5.98,17.51,5.98,30.09
		c0,12.59-1.99,22.61-5.98,30.09c-3.99,7.48-9.56,12.83-16.73,16.07c-7.17,3.24-15.61,4.86-25.32,4.86c-9.6,0-18.01-1.62-25.23-4.86
		c-7.23-3.24-12.83-8.6-16.82-16.07c-3.99-7.48-5.98-17.5-5.98-30.09c0-12.58,1.99-22.61,5.98-30.09
		c3.99-7.48,9.59-12.86,16.82-16.17C312.93,97.57,321.34,95.92,330.94,95.92z M330.94,99.65c-3.74,0-6.85,3.74-9.34,11.21
		c-2.49,7.48-3.74,19.56-3.74,36.26c0,16.7,1.24,28.75,3.74,36.16c2.49,7.41,5.61,11.12,9.34,11.12c3.74,0,6.85-3.71,9.34-11.12
		c2.49-7.41,3.74-19.47,3.74-36.16c0-16.69-1.25-28.78-3.74-36.26C337.79,103.39,334.68,99.65,330.94,99.65z"/>
	<path class="st4" d="M438.58,95.92c9.72,0,18.16,1.65,25.32,4.95c7.16,3.3,12.74,8.69,16.73,16.17c3.99,7.48,5.98,17.51,5.98,30.09
		c0,12.59-1.99,22.61-5.98,30.09c-3.99,7.48-9.56,12.83-16.73,16.07c-7.17,3.24-15.61,4.86-25.32,4.86c-9.6,0-18.01-1.62-25.23-4.86
		c-7.23-3.24-12.83-8.6-16.82-16.07c-3.99-7.48-5.98-17.5-5.98-30.09c0-12.58,1.99-22.61,5.98-30.09
		c3.99-7.48,9.59-12.86,16.82-16.17C420.58,97.57,428.99,95.92,438.58,95.92z M438.58,99.65c-3.74,0-6.85,3.74-9.34,11.21
		c-2.49,7.48-3.74,19.56-3.74,36.26c0,16.7,1.24,28.75,3.74,36.16c2.49,7.41,5.61,11.12,9.34,11.12c3.74,0,6.85-3.71,9.34-11.12
		c2.49-7.41,3.74-19.47,3.74-36.16c0-16.69-1.25-28.78-3.74-36.26C445.43,103.39,442.32,99.65,438.58,99.65z"/>
	<path class="st4" d="M538.01,49.38v128.77c0,5.23,0.78,8.78,2.34,10.65c1.56,1.87,4.27,2.8,8.13,2.8v3.92
		c-2.49-0.12-6.23-0.28-11.21-0.47c-4.98-0.19-10.09-0.28-15.32-0.28c-5.23,0-10.53,0.09-15.89,0.28
		c-5.36,0.19-9.41,0.34-12.15,0.47v-3.92c3.86,0,6.57-0.93,8.13-2.8c1.56-1.87,2.34-5.42,2.34-10.65V71.81
		c0-5.61-0.75-9.75-2.24-12.43c-1.5-2.68-4.24-4.02-8.22-4.02v-3.92c3.99,0.37,7.85,0.56,11.59,0.56c6.23,0,12.05-0.22,17.47-0.65
		C528.38,50.91,533.4,50.25,538.01,49.38z M600.05,98.53v3.74c-4.49,1.25-9.03,3.43-13.64,6.54c-4.61,3.12-9.28,7.04-14.02,11.77
		l-6.54,6.54l1.31-2.43l30.09,57.19c1,1.87,2.06,3.71,3.18,5.51c1.12,1.81,2.55,3.21,4.3,4.2v3.92c-2.12-0.12-5.33-0.28-9.62-0.47
		c-4.3-0.19-8.63-0.28-12.99-0.28c-4.98,0-10,0.09-15.04,0.28c-5.05,0.19-8.82,0.34-11.31,0.47v-3.92c2.49,0,4.14-0.56,4.95-1.68
		c0.81-1.12,0.71-2.68-0.28-4.67l-16.45-34.76c-0.87-1.74-1.87-2.86-2.99-3.36c-1.12-0.5-2.43-0.75-3.93-0.75v-3.55
		c1.74,0,3.36-0.15,4.86-0.47c1.5-0.31,2.86-1.09,4.11-2.34l14.39-13.46c4.36-3.99,6.57-7.76,6.63-11.31
		c0.06-3.55-1.31-6.51-4.11-8.88c-2.8-2.37-6.45-3.74-10.93-4.11v-3.74c3.61,0.13,7.5,0.25,11.68,0.37
		c4.17,0.13,7.76,0.19,10.75,0.19c2.62,0,5.61-0.03,8.97-0.09c3.36-0.06,6.57-0.12,9.62-0.19C596.1,98.75,598.43,98.66,600.05,98.53
		z"/>
	<path class="st4" d="M675.93,63.21v3.74c-4.24,0.13-7.45,0.59-9.62,1.4c-2.18,0.81-3.64,2.31-4.39,4.49
		c-0.75,2.18-1.12,5.58-1.12,10.19v96.43c0,3.36,0.25,5.89,0.75,7.57c0.5,1.68,1.43,2.8,2.8,3.36c1.37,0.56,3.36,0.84,5.98,0.84
		h6.17c4.36,0,9.09-2.18,14.2-6.54c5.11-4.36,9.72-10.06,13.83-17.1c4.11-7.04,6.85-14.55,8.22-22.52h4.3
		c-0.37,4.48-0.56,10.22-0.56,17.19c0,3.24,0.06,7.94,0.19,14.11c0.12,6.17,0.5,12.55,1.12,19.16c-6.35-0.25-13.52-0.4-21.49-0.47
		c-7.97-0.06-15.08-0.09-21.31-0.09c-4.49,0-10.5,0-18.04,0c-7.54,0-15.51,0.03-23.92,0.09c-8.41,0.06-16.23,0.22-23.45,0.47v-3.74
		c3.86-0.25,6.73-0.75,8.6-1.5c1.87-0.75,3.11-2.24,3.74-4.49c0.62-2.24,0.93-5.61,0.93-10.09v-92.7c0-4.61-0.31-8-0.93-10.19
		c-0.62-2.18-1.9-3.67-3.83-4.49c-1.93-0.81-4.77-1.28-8.5-1.4v-3.74c3.61,0.13,8.38,0.25,14.3,0.37
		c5.92,0.13,12.24,0.19,18.97,0.19c6.23,0,12.33-0.06,18.32-0.19C667.14,63.46,672.06,63.34,675.93,63.21z"/>
	<path class="st4" d="M749.56,196.84c-8.47,0-14.61-2.27-18.41-6.82c-3.8-4.55-5.7-9.81-5.7-15.79c0-5.36,1.18-9.72,3.55-13.08
		c2.37-3.36,5.45-6.1,9.25-8.22c3.8-2.12,7.82-3.89,12.05-5.33c4.23-1.43,8.25-2.83,12.05-4.2c3.8-1.37,6.88-2.96,9.25-4.77
		c2.37-1.8,3.55-4.14,3.55-7.01v-16.63c0-1.99-0.35-4.17-1.03-6.54c-0.69-2.37-1.96-4.42-3.83-6.17c-1.87-1.74-4.67-2.62-8.41-2.62
		c-1.99,0-3.9,0.28-5.7,0.84c-1.81,0.56-3.4,1.34-4.77,2.34c4.36,1.62,7.54,3.9,9.53,6.82c1.99,2.93,2.99,6.14,2.99,9.62
		c0,4.98-1.75,8.91-5.23,11.77c-3.49,2.87-7.6,4.3-12.33,4.3c-4.98,0-8.85-1.56-11.59-4.67c-2.74-3.11-4.11-6.98-4.11-11.59
		c0-3.86,0.96-7.13,2.9-9.81c1.93-2.68,4.83-5.14,8.69-7.38c3.74-2.12,8.22-3.64,13.46-4.58c5.23-0.93,10.71-1.4,16.45-1.4
		c6.1,0,11.77,0.59,17.01,1.78c5.23,1.19,9.72,3.71,13.46,7.57c2.62,2.74,4.3,6.17,5.05,10.28c0.75,4.11,1.12,9.41,1.12,15.89v50.09
		c0,3.12,0.22,5.23,0.65,6.35c0.44,1.12,1.22,1.68,2.34,1.68c1,0,1.96-0.31,2.9-0.93c0.93-0.62,1.84-1.24,2.71-1.87l1.87,3.18
		c-2.74,2.37-6.14,4.11-10.19,5.23c-4.05,1.12-8.32,1.68-12.8,1.68c-8.1,0-13.49-1.43-16.17-4.3c-2.68-2.86-4.14-6.17-4.39-9.9
		c-2.49,4.11-5.86,7.51-10.09,10.19C761.4,195.5,756.04,196.84,749.56,196.84z M768.25,181.88c1.37,0,2.58-0.22,3.64-0.65
		c1.06-0.44,2.15-1.28,3.27-2.52v-39.43c-1.25,2.24-2.8,4.2-4.67,5.89s-3.71,3.49-5.51,5.42c-1.81,1.93-3.3,4.3-4.49,7.1
		c-1.19,2.8-1.78,6.39-1.78,10.75c0,4.98,0.9,8.47,2.71,10.47C763.23,180.89,765.51,181.88,768.25,181.88z"/>
	<path class="st4" d="M865.99,49.38V195.9c-4.11-1.74-8.32-2.68-12.61-2.8c-4.3-0.12-8.19,0.31-11.68,1.31
		c-3.49,1-6.17,2.37-8.04,4.11l-2.62-1.87c0.62-1.74,1-3.46,1.12-5.14c0.12-1.68,0.19-3.39,0.19-5.14V71.81
		c0-5.61-0.75-9.75-2.24-12.43c-1.49-2.68-4.24-4.02-8.22-4.02v-3.92c3.99,0.37,7.85,0.56,11.59,0.56c6.23,0,12.05-0.22,17.47-0.65
		C856.36,50.91,861.38,50.25,865.99,49.38z M894.4,95.92c9.22,0,16.94,3.83,23.17,11.49c6.23,7.66,9.34,19.47,9.34,35.42
		c0,14.08-1.99,25.17-5.98,33.27c-3.99,8.1-9.28,13.8-15.89,17.1c-6.6,3.3-13.83,4.95-21.68,4.95c-4.24,0-8.1-0.25-11.59-0.75
		c-3.49-0.5-6.85-1.75-10.09-3.74l2.06-2.99c1.62,1.25,3.43,2.18,5.42,2.8c1.99,0.62,3.86,0.93,5.61,0.93
		c5.86,0,10.19-3.92,12.99-11.77c2.8-7.85,4.21-19.68,4.21-35.51c0-11.09-0.56-19.62-1.68-25.6c-1.12-5.98-2.62-10.12-4.48-12.43
		c-1.87-2.3-3.99-3.46-6.35-3.46c-3.49,0-6.6,1.25-9.34,3.74c-2.74,2.49-4.11,5.73-4.11,9.72v-9.16c2.87-4.73,6.73-8.25,11.59-10.56
		C882.44,97.07,888.04,95.92,894.4,95.92z"/>
</g>
</svg>
